<svg width="269" height="240" viewBox="0 0 269 240" fill="none" xmlns="http://www.w3.org/2000/svg">
<path d="M8.31203 69.912C7.64103 69.805 5.92204 69.375 4.49904 68.986L1.90703 68.261L3.23703 65.817L4.56603 63.373L3.49204 62.043C1.97404 60.163 0.0140314 56.041 3.1379e-05 54.713C-0.0129686 51.61 4.01503 47.112 8.95703 44.695C12.354 43.03 15.053 42.99 18.437 44.575L20.987 45.769L21.727 44.709C22.129 44.131 22.465 43.366 22.465 43.03C22.465 42.694 22.801 42.399 23.203 42.399C23.606 42.399 23.942 42.506 23.942 42.627C23.942 42.923 20.974 50.415 20.786 50.603C20.706 50.683 19.9 50.308 18.987 49.771C16.409 48.253 13.173 47.246 10.662 47.179C4.82103 47.031 2.79303 52.739 6.91603 57.733L8.36603 59.493L12.327 56.283C16.772 52.698 17.282 52.617 20.747 55.008C24.64 57.693 24.707 61.775 20.947 66.045C17.617 69.845 14.193 70.893 8.31203 69.912ZM18.275 65.817C20.209 64.3 20.075 61.493 17.98 59.264C15.348 56.471 14.53 56.592 9.89703 60.459C5.29103 64.299 5.26403 64.152 10.769 65.911C14.409 67.092 16.691 67.052 18.275 65.817ZM55.685 80.614C54.369 80.131 50.825 78.667 47.79 77.351C39.599 73.779 38.444 73.712 36 76.68C35.436 77.365 34.818 77.794 34.644 77.62C34.12 77.096 35.678 74.585 37.558 72.934C39.088 71.591 39.598 71.403 41.291 71.591C42.365 71.711 45.937 72.961 49.226 74.357C56.652 77.512 58.827 78.184 61.66 78.184C65.111 78.184 66.884 75.767 65.796 72.558C65.528 71.752 65.608 71.483 66.146 71.483C67.152 71.483 67.663 75.243 66.937 77.405C66.629 78.331 65.729 79.647 64.937 80.305C63.755 81.299 63.003 81.514 60.787 81.5C59.297 81.487 57.001 81.098 55.685 80.614ZM36.551 69.134C33.502 67.71 30.75 64.998 29.165 61.829C26.627 56.753 27.406 53.504 32.213 49.113C36.255 45.42 39.558 43.983 44.003 43.983C47.213 43.983 47.897 44.158 49.978 45.433C54.906 48.482 56.128 54.296 53.161 60.633C49.683 68.073 42.338 71.819 36.551 69.133V69.134ZM46.756 65.602C49.038 64.474 50.609 59.264 49.965 54.94C49.159 49.61 41.948 45.97 36.658 48.227C31.22 50.55 31.139 56.74 36.483 62.312C40.216 66.22 43.426 67.24 46.756 65.602ZM57.108 70.114C57.108 69.885 57.954 69.483 59.002 69.227L60.895 68.757L61.298 61.937C61.741 54.39 61.418 46.964 60.6 45.971C60.304 45.621 59.405 45.191 58.585 45.004C55.255 44.265 57.471 43.755 63.93 43.755C70.388 43.755 72.443 44.225 69.368 45.004C66.723 45.662 66.709 45.702 66.709 56.471C66.709 62.446 66.924 66.945 67.233 67.522C67.663 68.328 68.307 68.502 70.778 68.502C75.88 68.502 77.639 67.294 79.022 62.822C79.439 61.48 80.512 61.722 80.137 63.078C79.962 63.708 79.68 65.628 79.506 67.374L79.184 70.53H68.146C62.076 70.53 57.108 70.342 57.108 70.114Z" fill="#333333"/>
<path d="M82.1782 69.791C82.1782 69.389 82.5682 68.986 83.2122 68.677C84.0722 68.274 84.6352 67.428 86.6762 63.44C89.9122 57.13 95.0152 46.293 95.4982 44.668C95.8742 43.433 95.9552 43.366 97.3512 43.205C98.1572 43.111 98.8282 43.057 98.8412 43.084C98.8552 43.111 99.9702 45.554 101.326 48.522C102.669 51.489 105.368 57.129 107.328 61.05C110.604 67.643 110.967 68.234 112.068 68.77C112.739 69.093 113.263 69.59 113.263 69.885C113.263 70.355 112.686 70.409 107.717 70.409C102.736 70.409 102.172 70.355 102.172 69.872C102.172 69.55 102.602 69.201 103.286 68.972C103.917 68.771 104.401 68.395 104.401 68.113C104.401 67.844 103.743 66.072 102.937 64.179L101.474 60.728H90.3822L89.3222 63.064C87.3342 67.442 87.2942 68.476 89.1472 68.972C90.0732 69.227 90.3292 69.429 90.2212 69.845C90.1012 70.329 89.6172 70.395 86.1262 70.395C82.3792 70.423 82.1782 70.395 82.1782 69.791ZM100.359 58.928C100.547 58.593 96.3712 49.475 95.9822 49.381C95.7002 49.301 91.3762 58.217 91.3762 58.888C91.3762 59.224 100.158 59.264 100.359 58.928Z" fill="#CA2727"/>
<path d="M8.31203 227.93C7.64103 227.822 5.92204 227.392 4.49904 227.003L1.90703 226.278L3.23703 223.834L4.56603 221.39L3.49204 220.06C1.97404 218.181 0.0140314 214.059 3.1379e-05 212.73C-0.0129686 209.628 4.01503 205.13 8.95703 202.712C12.354 201.047 15.053 201.007 18.437 202.592L20.987 203.787L21.727 202.726C22.129 202.148 22.465 201.383 22.465 201.047C22.465 200.711 22.801 200.417 23.203 200.417C23.606 200.417 23.942 200.524 23.942 200.644C23.942 200.94 20.974 208.432 20.786 208.62C20.706 208.701 19.9 208.325 18.987 207.788C16.409 206.271 13.173 205.264 10.662 205.196C4.82103 205.049 2.79303 210.756 6.91603 215.751L8.36603 217.51L12.327 214.3C16.772 210.715 17.282 210.635 20.747 213.025C24.64 215.71 24.707 219.792 20.947 224.062C17.617 227.862 14.193 228.91 8.31203 227.93ZM18.275 223.834C20.209 222.317 20.075 219.51 17.98 217.281C15.348 214.488 14.53 214.609 9.89703 218.476C5.29103 222.316 5.26403 222.169 10.769 223.928C14.409 225.096 16.691 225.069 18.275 223.834ZM55.685 238.631C54.369 238.148 50.825 236.684 47.79 235.368C39.599 231.797 38.444 231.73 36 234.698C35.436 235.382 34.818 235.812 34.644 235.637C34.12 235.113 35.678 232.602 37.558 230.951C39.088 229.608 39.598 229.42 41.291 229.608C42.365 229.728 45.937 230.978 49.226 232.374C56.652 235.53 58.827 236.201 61.66 236.201C65.111 236.201 66.884 233.784 65.796 230.575C65.528 229.769 65.608 229.501 66.146 229.501C67.152 229.501 67.663 233.261 66.937 235.422C66.629 236.349 65.729 237.665 64.937 238.322C63.755 239.316 63.003 239.532 60.787 239.518C59.297 239.504 57.001 239.115 55.685 238.631ZM36.551 227.151C33.502 225.727 30.75 223.015 29.165 219.846C26.627 214.77 27.406 211.521 32.213 207.13C36.255 203.437 39.558 202 44.003 202C47.213 202 47.897 202.175 49.978 203.45C54.906 206.499 56.128 212.313 53.161 218.651C49.683 226.09 42.338 229.836 36.551 227.151ZM46.756 223.619C49.038 222.491 50.609 217.281 49.965 212.958C49.159 207.627 41.948 203.988 36.658 206.244C31.22 208.567 31.139 214.757 36.483 220.329C40.216 224.237 43.426 225.257 46.756 223.619ZM57.108 228.13C57.108 227.903 57.954 227.5 59.002 227.245L60.895 226.775L61.298 219.953C61.741 212.407 61.418 204.982 60.6 203.988C60.304 203.638 59.405 203.209 58.585 203.021C55.255 202.283 57.471 201.772 63.93 201.772C70.388 201.772 72.443 202.242 69.368 203.022C66.723 203.679 66.709 203.719 66.709 214.488C66.709 220.464 66.924 224.962 67.233 225.539C67.663 226.345 68.307 226.519 70.778 226.519C75.88 226.519 77.639 225.311 79.022 220.839C79.439 219.497 80.512 219.739 80.137 221.095C79.962 221.725 79.68 223.646 79.506 225.392L79.184 228.547H68.146C62.076 228.547 57.108 228.359 57.108 228.131V228.13ZM82.178 227.809C82.178 227.406 82.568 227.003 83.212 226.694C84.072 226.291 84.635 225.445 86.676 221.457C89.912 215.147 95.015 204.31 95.498 202.685C95.874 201.45 95.955 201.383 97.351 201.222C98.157 201.128 98.828 201.074 98.841 201.101C98.855 201.128 99.97 203.571 101.326 206.539C102.669 209.507 105.368 215.146 107.328 219.067C110.604 225.66 110.967 226.251 112.068 226.788C112.739 227.11 113.263 227.608 113.263 227.903C113.263 228.373 112.686 228.426 107.717 228.426C102.736 228.426 102.172 228.373 102.172 227.889C102.172 227.567 102.602 227.218 103.286 226.989C103.917 226.789 104.401 226.412 104.401 226.13C104.401 225.862 103.743 224.09 102.937 222.196L101.474 218.745H90.382L89.322 221.081C87.334 225.459 87.294 226.493 89.147 226.99C90.073 227.245 90.329 227.446 90.221 227.862C90.101 228.346 89.617 228.412 86.126 228.412C82.379 228.44 82.178 228.412 82.178 227.809ZM100.359 216.946C100.547 216.61 96.371 207.493 95.982 207.399C95.7 207.318 91.376 216.234 91.376 216.905C91.376 217.241 100.158 217.281 100.359 216.945V216.946Z" fill="#333333"/>
<path d="M150.055 70.92C149.431 70.7959 148.812 70.6434 148.202 70.463L146.94 70.113L147.584 68.933L148.229 67.75L147.705 67.106C146.967 66.193 146.013 64.179 146 63.534C146 62.03 147.96 59.828 150.364 58.646C152.015 57.841 153.331 57.814 154.983 58.579L156.232 59.157L156.594 58.647C156.796 58.364 156.957 57.988 156.957 57.827C156.957 57.667 157.117 57.519 157.319 57.519C157.521 57.519 157.682 57.572 157.682 57.626C157.682 57.774 156.232 61.413 156.138 61.506C156.098 61.546 155.708 61.359 155.265 61.104C154.016 60.365 152.432 59.868 151.21 59.842C148.363 59.774 147.383 62.554 149.384 64.984L150.095 65.844L152.029 64.286C154.191 62.54 154.446 62.5 156.138 63.668C158.031 64.971 158.071 66.958 156.232 69.053C154.594 70.879 152.915 71.389 150.055 70.919V70.92ZM154.902 68.919C155.842 68.18 155.775 66.81 154.755 65.723C153.479 64.367 153.076 64.42 150.82 66.3C148.578 68.167 148.564 68.1 151.25 68.959C153.022 69.536 154.137 69.523 154.902 68.919ZM173.137 76.13C172.493 75.901 170.76 75.176 169.297 74.531C165.309 72.786 164.745 72.759 163.55 74.209C163.268 74.545 162.972 74.746 162.892 74.666C162.637 74.411 163.389 73.189 164.315 72.383C165.067 71.725 165.309 71.644 166.128 71.725C166.652 71.779 168.398 72.383 169.995 73.068C173.607 74.598 174.668 74.934 176.051 74.934C177.729 74.934 178.602 73.753 178.065 72.195C177.931 71.805 177.971 71.671 178.24 71.671C178.737 71.671 178.978 73.497 178.63 74.558C178.481 75.015 178.038 75.646 177.649 75.968C177.071 76.452 176.709 76.559 175.621 76.546C174.896 76.559 173.781 76.358 173.137 76.129V76.13ZM163.818 70.53C162.328 69.845 160.998 68.516 160.22 66.972C158.984 64.501 159.36 62.916 161.71 60.768C163.684 58.968 165.282 58.27 167.457 58.27C169.015 58.27 169.351 58.351 170.371 58.982C172.775 60.472 173.365 63.306 171.915 66.381C170.21 70.02 166.638 71.846 163.818 70.53ZM168.787 68.811C169.901 68.261 170.667 65.723 170.344 63.615C169.954 61.023 166.437 59.237 163.859 60.338C161.213 61.466 161.173 64.488 163.779 67.2C165.604 69.12 167.162 69.617 168.787 68.811ZM173.836 71.013C173.836 70.906 174.252 70.705 174.762 70.583L175.688 70.355L175.89 67.039C176.105 63.359 175.944 59.748 175.554 59.264C175.406 59.09 174.977 58.888 174.574 58.794C172.949 58.432 174.037 58.176 177.179 58.176C180.321 58.176 181.329 58.405 179.824 58.781C178.535 59.103 178.535 59.116 178.535 64.367C178.535 67.28 178.643 69.469 178.79 69.751C179.005 70.141 179.314 70.221 180.522 70.221C183.007 70.221 183.866 69.631 184.537 67.455C184.739 66.797 185.262 66.918 185.074 67.575C184.994 67.885 184.846 68.825 184.766 69.671L184.618 71.215H179.246C176.251 71.215 173.834 71.121 173.834 71.013H173.836Z" fill="#333333"/>
<path d="M201.953 71C201.953 70.745 202.168 70.476 202.423 70.396C202.759 70.288 202.933 69.939 203.041 69.201C203.229 67.938 203.027 59.398 202.799 58.687C202.651 58.244 202.893 58.056 204.786 57.075C206.236 56.323 206.988 56.055 207.096 56.229C207.19 56.377 206.962 56.739 206.572 57.049L205.887 57.599L205.82 63.669L205.753 69.738L206.384 70.235C206.774 70.543 206.962 70.879 206.881 71.094C206.774 71.389 206.263 71.456 204.357 71.456C202.141 71.456 201.953 71.43 201.953 71ZM209.889 71.04C209.459 70.745 208.841 70.02 208.519 69.429C208.036 68.529 207.955 68.086 208.036 66.757C208.103 65.401 208.237 65.025 208.841 64.273C209.661 63.266 211.567 61.869 212.427 61.654C213.541 61.372 215.824 63.386 215.502 64.367C215.421 64.608 214.884 64.984 214.293 65.199L213.219 65.602L212.856 64.904C212.4 64.018 211.379 63.319 211.044 63.655C210.909 63.789 210.694 64.353 210.574 64.904C210.439 65.5214 210.447 66.1613 210.595 66.7754C210.744 67.3896 211.031 67.9618 211.433 68.449C212.265 69.442 213.031 69.563 214.199 68.919C215.019 68.462 215.179 68.435 215.381 68.731C215.555 68.999 215.354 69.308 214.588 70.006C212.803 71.644 211.272 71.98 209.888 71.04H209.889ZM216.415 70.248C216.75 70.141 216.925 69.791 217.032 69.053C217.22 67.791 217.019 59.251 216.791 58.539C216.643 58.096 216.885 57.908 218.778 56.928C221.048 55.759 221.799 55.786 220.497 56.995C219.772 57.68 219.758 57.693 219.758 60.177C219.758 61.547 219.691 63.037 219.597 63.48L219.436 64.286L220.416 63.4C221.476 62.446 222.618 61.775 223.182 61.775C223.679 61.775 224.955 62.903 225.384 63.735C225.68 64.313 225.72 64.944 225.586 67.133C225.425 69.805 225.425 69.832 225.989 70.127C226.741 70.517 226.714 70.477 226.539 70.919C226.419 71.242 226.002 71.309 224.029 71.309C221.49 71.309 221.249 71.161 222.242 70.235C223.303 69.255 223.397 65.293 222.39 64.286C221.933 63.83 221.853 63.83 221.262 64.152C220.202 64.756 219.745 65.803 219.691 67.844C219.637 69.671 219.811 70.087 220.765 70.396C220.886 70.436 220.913 70.651 220.819 70.879C220.685 71.229 220.322 71.295 218.308 71.295C217.637 71.645 214.911 71.215 216.415 70.248ZM229.668 70.973C225.68 68.006 228.191 62.272 232.676 61.601C232.998 61.681 233.71 62.138 234.233 62.621C235.764 64.004 235.549 64.447 232.783 65.696C231.534 66.26 230.487 66.878 230.447 67.092C230.339 67.643 231.239 68.784 232.057 69.12C232.676 69.375 232.89 69.348 233.737 68.865C234.488 68.449 234.77 68.382 234.985 68.596C235.603 69.214 232.541 71.496 231.078 71.496C230.742 71.51 230.111 71.268 229.668 70.973ZM231.454 65.253C232.676 64.555 232.743 64.246 231.803 63.749C231.051 63.359 231.011 63.359 230.594 63.883C230.178 64.407 229.99 65.803 230.339 65.79C230.433 65.79 230.943 65.548 231.454 65.253ZM236.033 71.013C236.033 70.799 236.247 70.463 236.516 70.235C237.228 69.657 237.416 66.784 236.892 64.729C236.462 63.037 236.409 63.159 238.02 62.299C239.255 61.641 239.604 61.829 239.604 63.118V64.165L240.45 63.386C240.92 62.956 241.672 62.406 242.129 62.164C242.881 61.762 243.015 61.748 243.606 62.084C243.968 62.285 244.506 62.836 244.828 63.319L245.392 64.192L246.573 63.132C247.231 62.54 248.023 62.003 248.346 61.922C249.138 61.722 250.038 62.245 250.749 63.332C251.327 64.206 251.34 64.326 251.206 66.958C251.058 69.684 251.058 69.684 251.676 70.168C252.052 70.463 252.24 70.798 252.146 71.013C252.038 71.295 251.542 71.376 249.729 71.376C247.648 71.376 247.459 71.336 247.459 70.919C247.459 70.664 247.661 70.396 247.916 70.315C248.52 70.127 248.655 69.523 248.655 67.025C248.655 65.253 248.587 64.863 248.185 64.461C247.554 63.83 247.205 63.856 246.465 64.635C245.002 66.179 244.949 70.409 246.385 70.409C246.587 70.409 246.667 70.584 246.587 70.879C246.479 71.309 246.264 71.349 244.103 71.349C241.484 71.349 241.243 71.161 242.343 70.06C242.894 69.51 242.934 69.295 242.934 67.334C242.934 65.548 242.854 65.105 242.438 64.581C241.806 63.789 241.511 63.789 240.705 64.621C239.927 65.441 239.591 66.501 239.591 68.194C239.591 69.227 239.698 69.564 240.209 70.074C241.229 71.094 240.867 71.349 238.289 71.349C236.395 71.389 236.033 71.336 236.033 71.013Z" fill="#CA2727"/>
<path d="M260.646 77.606C260.646 77.553 260.806 77.11 261.008 76.64C261.21 76.17 261.371 75.673 261.371 75.538C261.371 74.988 254.16 75.404 252.991 76.035C252.777 76.156 252.521 76.465 252.441 76.72C252.267 77.244 251.609 77.378 251.609 76.881C251.609 76.707 251.783 76.062 251.999 75.444C252.32 74.504 252.709 74.048 254.321 72.759C255.381 71.899 256.295 71.107 256.335 70.999C256.375 70.893 255.53 69.133 254.469 67.092L252.522 63.386L254.549 62.433C255.664 61.909 256.684 61.48 256.832 61.48C257.289 61.48 257.114 61.99 256.496 62.473C256.174 62.728 255.906 63.091 255.906 63.293C255.906 63.749 258.484 68.878 258.712 68.878C258.819 68.878 259.195 68.422 259.558 67.871C260.055 67.106 260.202 66.622 260.148 65.911C260.095 65.091 259.934 64.877 259.061 64.286C258.511 63.91 258.054 63.454 258.054 63.266C258.054 63.078 258.497 62.634 259.021 62.286L259.988 61.641L260.847 62.097C262.512 62.997 263.063 65.078 262.123 66.917C261.679 67.777 259.182 70.329 256.738 72.397L255.543 73.403L256.496 73.243C257.02 73.148 258.658 73.068 260.136 73.054C262.928 73.041 263.277 73.148 263.277 74.129C263.277 74.706 261.478 77.553 261.048 77.647C260.82 77.673 260.646 77.66 260.646 77.607V77.606ZM186.041 70.852C186.041 70.651 186.229 70.462 186.538 70.315C186.954 70.127 187.236 69.711 188.23 67.764C189.814 64.689 192.285 59.412 192.527 58.62C192.701 58.015 192.755 57.988 193.427 57.908C193.816 57.868 194.152 57.841 194.152 57.854C194.165 57.868 194.702 59.063 195.36 60.499C196.018 61.949 197.334 64.689 198.287 66.609C199.885 69.819 200.06 70.114 200.597 70.369C200.919 70.53 201.174 70.772 201.174 70.906C201.174 71.134 200.892 71.161 198.475 71.161C196.045 71.161 195.776 71.134 195.776 70.906C195.776 70.745 195.991 70.584 196.313 70.463C196.623 70.355 196.85 70.181 196.85 70.047C196.85 69.912 196.528 69.053 196.139 68.127L195.427 66.447H190.029L189.506 67.589C188.539 69.724 188.526 70.221 189.425 70.463C189.868 70.583 190.002 70.691 189.949 70.893C189.882 71.134 189.653 71.161 187.948 71.161C186.148 71.161 186.041 71.148 186.041 70.852ZM194.903 65.562C194.997 65.401 192.956 60.956 192.768 60.902C192.634 60.862 190.526 65.212 190.526 65.535C190.526 65.709 194.796 65.723 194.903 65.562Z" fill="#CA2727"/>
</svg>
